<?xml version="1.0" standalone="no"?>
<!DOCTYPE svg PUBLIC "-//W3C//DTD SVG 20010904//EN"
 "http://www.w3.org/TR/2001/REC-SVG-20010904/DTD/svg10.dtd">
<svg version="1.0" xmlns="http://www.w3.org/2000/svg"
 width="2015.000000pt" height="2209.000000pt" viewBox="0 0 2015.000000 2209.000000"
 preserveAspectRatio="xMidYMid meet">

<g transform="translate(0.000000,2209.000000) scale(0.100000,-0.100000)"
fill="#000000" stroke="none">
<path d="M3450 22073 c-1152 -85 -2204 -710 -2843 -1689 -306 -470 -496 -989
-574 -1574 -17 -129 -18 -430 -18 -6800 0 -6337 1 -6671 18 -6795 120 -880
490 -1620 1108 -2220 510 -495 1152 -835 1837 -974 201 -41 352 -59 587 -72
135 -7 2312 -9 6655 -7 6083 3 6463 5 6598 21 476 58 897 184 1289 383 702
358 1279 935 1637 1637 199 392 325 813 383 1289 16 135 18 515 21 6598 2
4343 0 6520 -7 6655 -13 235 -31 386 -72 587 -177 875 -683 1673 -1407 2221
-513 389 -1091 624 -1777 724 -113 16 -502 17 -6755 18 -3649 1 -6655 0 -6680
-2z m13210 -1254 c848 -78 1594 -594 1979 -1369 108 -217 173 -416 224 -685
l21 -110 3 -6580 c3 -5912 2 -6593 -12 -6710 -135 -1121 -1029 -2015 -2150
-2150 -117 -14 -798 -15 -6710 -12 l-6580 3 -110 21 c-269 51 -468 116 -685
224 -780 388 -1297 1140 -1370 1994 -8 94 -10 1956 -8 6650 3 6122 5 6526 21
6624 91 553 320 1005 702 1386 287 288 610 485 992 609 135 43 309 81 433 95
52 6 109 13 125 15 17 1 2951 4 6520 4 4512 1 6525 -1 6605 -9z"/>
<path d="M3940 16939 c-78 -13 -211 -61 -278 -100 -73 -44 -237 -207 -280
-281 -52 -88 -101 -208 -128 -314 -58 -230 -55 47 -51 -4509 2 -3842 4 -4189
19 -4288 41 -265 123 -442 273 -592 246 -246 596 -328 922 -216 286 98 488
338 577 686 49 196 49 195 55 1425 l6 1156 745 786 c410 432 749 785 754 784
16 -4 2199 -3703 2356 -3992 217 -398 303 -518 480 -666 178 -149 360 -215
621 -225 172 -7 276 6 404 48 154 51 267 130 368 257 101 124 155 249 178 404
23 158 -6 386 -77 598 -48 145 -200 449 -331 665 -60 99 -695 1102 -1412 2229
-716 1127 -1300 2054 -1297 2060 2 6 424 448 937 981 513 534 1034 1076 1158
1205 240 251 351 389 424 528 92 177 129 319 130 497 1 200 -43 354 -145 506
-168 251 -416 378 -744 379 -177 0 -331 -38 -441 -109 -86 -56 -238 -196 -366
-336 -61 -68 -929 -1059 -1927 -2202 l-1815 -2079 -5 1866 c-6 2042 -3 1924
-65 2156 -102 385 -353 630 -709 693 -70 13 -258 12 -336 0z"/>
<path d="M13257 8354 c-206 -32 -374 -105 -493 -216 -187 -176 -272 -372 -282
-653 -5 -163 6 -251 50 -382 51 -155 141 -285 267 -385 87 -69 159 -108 279
-148 185 -61 175 -61 1597 -58 l1290 4 107 26 c200 50 338 125 449 246 158
173 233 384 232 657 -2 270 -86 495 -246 658 -101 102 -203 163 -353 210 -181
57 -178 57 -1550 56 -1010 -1 -1276 -4 -1347 -15z"/>
</g>
</svg>
